<!DOCTYPE svg PUBLIC "-//W3C//DTD SVG 1.1//EN" "http://www.w3.org/Graphics/SVG/1.1/DTD/svg11.dtd">

<!-- Uploaded to: SVG Repo, www.svgrepo.com, Transformed by: SVG Repo Mixer Tools -->
<svg fill="#1c1c1c" width="100px" height="100px" viewBox="-4.48 -4.48 40.96 40.96" version="1.1"
    xmlns="http://www.w3.org/2000/svg" transform="matrix(-1, 0, 0, -1, 0, 0)rotate(180)" stroke="#1c1c1c">

    <g id="SVGRepo_bgCarrier" stroke-width="0" transform="translate(0,0), scale(1)">

        <path transform="translate(-4.48, -4.48), scale(1.28)" d="M16,28.73526639917067C17.74762967122406,28.76231089831418,19.12653040287024,27.225496266273062,20.836226230472025,26.862341960560336C23.022372253048612,26.397985477846646,25.685889598388776,27.68396636502599,27.444213065407205,26.304415727898828C29.105668723843266,25.00086592312904,29.134803115504877,22.402705308593895,29.210209581089156,20.29225728426052C29.278819828743224,18.372019271663174,27.824058417787146,16.674970071649753,27.856917867275158,14.75378771495211C27.89544027691166,12.50151097616722,30.406951395314664,10.277190548039059,29.416105536624972,8.254207856953148C28.456521371854244,6.295051305056754,25.220129899536992,7.020951721267828,23.446971895159894,5.750122521244974C21.68845932798131,4.4897897627084555,21.35562734126361,1.1445311919768604,19.202379145999473,0.9339906477650075C16.92606590929565,0.7114170360901684,15.641380024269488,3.7244901079023545,13.617021701281622,4.788968545615763C12.156415029849967,5.5570066394965725,10.489542211203945,5.685463367638399,8.965005054649403,6.317160146613343C7.1392380091981735,7.073672480085538,5.142058512330626,7.547454963287077,3.699522110493888,8.898315779332599C2.127478714908074,10.370453204437498,0.5225047496692788,12.209209125116576,0.3783697576212255,14.358100499771602C0.23360424204935176,16.516392274305954,2.076035963914543,18.260173172371637,2.9385250194421495,20.24393048303656C3.7300993084212175,22.064581159857067,3.7211625993140003,24.425321547775912,5.286341841198274,25.646621135409614C6.890808054682631,26.898576101629093,9.274482008403961,26.14993977254552,11.229959945821975,26.71368537467988C12.907625260934406,27.19734025267701,14.254218486824751,28.70825050019892,16,28.73526639917067" fill="#ff8f00" strokewidth="0"/>

    </g>

    <g id="SVGRepo_tracerCarrier" stroke-linecap="round" stroke-linejoin="round" stroke="#CCCCCC" stroke-width="0.064"/>

    <g id="SVGRepo_iconCarrier">
        <title>list1</title>
        <path d="M8 12h4v-4h-4v4zM8 18h4v-4h-4v4zM8 24h4v-4h-4v4zM14 8v4h10v-4h-10zM14 18h10v-4h-10v4zM14 24h10v-4h-10v4z"/>
    </g>

</svg>